<?xml version="1.0" standalone="no"?>
<!DOCTYPE svg PUBLIC "-//W3C//DTD SVG 20010904//EN"
 "http://www.w3.org/TR/2001/REC-SVG-20010904/DTD/svg10.dtd">
<svg version="1.0" xmlns="http://www.w3.org/2000/svg"
 width="981.000000pt" height="903.000000pt" viewBox="0 0 981.000000 903.000000"
 preserveAspectRatio="xMidYMid meet">

<g transform="translate(0.000000,903.000000) scale(0.100000,-0.100000)"
fill="#000000" stroke="none">
<path d="M3555 9024 c-690 -55 -1301 -262 -1850 -627 -941 -626 -1543 -1606
-1682 -2737 -21 -177 -24 -645 -5 -815 56 -492 184 -925 398 -1345 176 -346
385 -637 654 -914 434 -446 922 -755 1505 -953 132 -45 354 -107 360 -101 18
18 394 482 392 484 -1 1 -70 16 -152 33 -486 98 -930 295 -1316 583 -594 444
-1021 1084 -1204 1807 -112 443 -125 972 -34 1426 124 625 437 1205 893 1660
544 542 1241 866 2009 936 162 15 551 6 707 -16 677 -95 1300 -389 1778 -839
l82 -78 258 117 c141 64 262 122 267 127 14 14 -270 289 -435 421 -230 184
-425 310 -680 438 -398 199 -799 318 -1265 375 -124 15 -570 27 -680 18z"/>
<path d="M3715 7293 c-90 -33 -154 -96 -183 -182 -9 -25 -12 -265 -12 -880 l0
-846 -473 -475 c-315 -316 -480 -488 -492 -515 -11 -23 -21 -70 -23 -112 -3
-60 0 -80 20 -125 49 -107 143 -168 258 -168 126 0 116 -8 697 573 461 461
525 529 550 582 l28 60 0 940 c0 935 0 940 -21 986 -64 137 -218 208 -349 162z"/>
<path d="M6665 7050 c-294 -31 -576 -133 -825 -299 -445 -295 -750 -830 -800
-1405 -32 -363 84 -824 283 -1129 72 -110 203 -273 293 -365 41 -41 73 -76 72
-77 -2 -2 -41 -20 -88 -41 -510 -231 -992 -664 -1295 -1164 -129 -212 -270
-537 -331 -764 -38 -142 -91 -429 -105 -561 -17 -172 -17 -891 0 -970 29 -133
88 -200 206 -238 l70 -22 2700 0 c2565 0 2703 1 2751 18 108 37 174 126 195
258 17 110 6 961 -14 1099 -30 206 -128 550 -218 767 -160 383 -361 686 -644
968 -272 272 -586 493 -873 615 -45 19 -82 38 -82 41 0 4 32 32 71 64 173 140
411 516 503 795 86 262 106 548 60 858 -76 513 -367 986 -779 1263 -326 221
-762 330 -1150 289z m145 -529 c0 -33 17 -41 90 -41 138 0 381 -67 520 -141
322 -173 565 -528 625 -915 25 -158 17 -412 -18 -545 -109 -417 -415 -751
-810 -884 -100 -33 -302 -65 -415 -65 -162 0 -354 52 -522 142 -291 155 -480
373 -606 698 -83 215 -103 486 -52 711 71 317 257 602 510 782 80 57 230 135
311 161 72 24 222 56 261 56 35 0 46 13 46 51 0 14 7 19 30 19 26 0 30 -3 30
-29z m325 -3095 c319 -47 614 -144 853 -280 656 -371 1062 -915 1256 -1681 50
-198 58 -274 63 -587 l5 -298 -2481 0 -2481 0 0 223 c0 260 12 409 45 564 161
747 529 1293 1148 1704 282 187 676 328 1033 369 109 12 438 4 559 -14z"/>
</g>
</svg>
